<?xml version="1.0" standalone="no"?>
<!DOCTYPE svg PUBLIC "-//W3C//DTD SVG 20010904//EN"
 "http://www.w3.org/TR/2001/REC-SVG-20010904/DTD/svg10.dtd">
<svg version="1.0" xmlns="http://www.w3.org/2000/svg"
 width="1024.000000pt" height="1024.000000pt" viewBox="0 0 1024.000000 1024.000000"
 preserveAspectRatio="xMidYMid meet">

<g transform="translate(0.000000,1024.000000) scale(0.100000,-0.100000)"
fill="#000000" stroke="none">
<path d="M2955 8218 c-128 -35 -235 -103 -315 -200 -111 -132 -146 -229 -161
-438 -6 -93 -9 -1039 -7 -2620 3 -2227 5 -2480 19 -2525 55 -173 177 -319 329
-393 159 -78 -33 -72 2275 -72 2281 0 2114 -5 2254 62 78 36 182 138 238 233
20 33 41 63 45 66 5 3 19 39 31 80 l22 74 0 2600 c0 2151 -2 2609 -14 2655
-16 68 -81 204 -118 248 -69 83 -96 112 -101 108 -2 -3 -13 5 -23 18 -19 24
-82 59 -179 98 -50 20 -75 22 -298 26 l-243 4 -40 -28 c-22 -15 -45 -37 -51
-48 -6 -12 -16 -24 -21 -28 -6 -3 -12 -82 -15 -190 -4 -181 -5 -184 -37 -254
-43 -94 -138 -192 -226 -234 -127 -59 -268 -64 -414 -15 -44 14 -82 30 -85 34
-3 4 -27 21 -54 39 -27 17 -56 42 -65 55 -67 100 -89 137 -101 167 -7 20 -15
112 -19 210 -7 171 -13 210 -33 210 -5 0 -7 4 -4 9 8 12 -23 37 -67 56 -32 13
-176 15 -1244 14 -1160 -1 -1211 -2 -1278 -21z m2278 -439 c23 -13 56 -49 57
-62 0 -4 22 -56 50 -114 105 -223 313 -408 501 -443 64 -12 320 -12 455 0 121
11 196 41 294 120 70 55 95 79 70 65 -8 -5 10 16 39 46 29 30 61 70 72 89 27
52 49 99 50 107 0 5 6 15 13 23 8 8 19 33 26 55 21 67 38 92 74 109 108 51
266 -21 313 -144 17 -42 18 -184 18 -2525 0 -2409 -1 -2481 -19 -2529 -23 -60
-76 -120 -130 -149 l-41 -22 -1990 0 -1990 0 -40 22 c-52 28 -101 77 -128 127
-21 41 -22 50 -29 791 -4 413 -6 1540 -5 2505 2 1717 2 1756 22 1800 10 25 35
59 55 77 72 67 -12 63 1168 63 788 0 1079 -3 1095 -11z"/>
<path d="M4125 7194 c-129 -19 -287 -79 -345 -131 -14 -13 -28 -23 -32 -23
-12 0 -148 -142 -148 -155 0 -6 -8 -20 -18 -31 -68 -73 -121 -282 -109 -433
21 -263 157 -476 378 -591 182 -95 422 -115 574 -49 11 5 33 13 48 19 57 21
172 94 213 137 23 23 47 43 52 43 5 0 15 15 23 33 7 17 30 56 52 85 40 55 84
173 108 289 24 115 -12 301 -84 433 -42 76 -134 193 -147 185 -5 -3 -17 6 -26
20 -9 14 -23 25 -30 25 -8 0 -14 3 -14 8 0 19 -148 90 -235 113 -71 19 -206
31 -260 23z"/>
<path d="M6155 7083 c-325 -15 -315 -14 -315 -23 0 -3 -9 -16 -20 -27 -11 -12
-24 -41 -29 -64 -13 -57 4 -104 52 -143 l39 -31 424 -3 423 -3 49 25 c54 27
72 57 72 117 0 50 -21 91 -63 123 -65 50 -127 53 -632 29z"/>
<path d="M5870 6348 c-33 -17 -51 -35 -68 -69 -21 -42 -22 -51 -12 -90 14 -52
67 -106 113 -114 18 -3 214 -5 437 -3 373 3 408 4 441 22 91 47 91 185 1 246
l-36 25 -415 3 c-416 3 -416 2 -461 -20z"/>
<path d="M5870 5651 c-79 -41 -105 -140 -56 -212 48 -70 46 -70 513 -67 398 3
420 4 452 23 97 57 91 204 -9 255 -37 19 -58 20 -452 20 -383 0 -416 -1 -448
-19z"/>
<path d="M3715 5415 c-120 -32 -238 -93 -327 -169 -79 -68 -109 -104 -150
-181 -45 -84 -49 -146 -46 -585 3 -355 5 -409 20 -435 23 -42 67 -80 107 -94
44 -14 1699 -16 1750 -1 53 15 107 57 125 98 15 34 17 83 14 482 l-3 445 -37
75 c-48 97 -118 174 -221 243 -100 67 -149 89 -275 122 -158 41 -188 35 -280
-62 -20 -21 -58 -57 -84 -81 -27 -23 -48 -45 -48 -48 0 -11 -54 -49 -72 -50
-10 -1 -16 2 -13 6 4 7 -213 215 -254 242 -35 24 -97 22 -206 -7z"/>
<path d="M6187 4954 c-94 -22 -167 -64 -237 -134 -114 -114 -167 -251 -157
-405 19 -276 242 -487 517 -489 169 -2 304 63 414 197 75 91 107 177 114 297
8 168 -46 300 -170 415 -127 117 -306 162 -481 119z m412 -229 c32 -16 58 -87
47 -130 -4 -14 -50 -72 -104 -129 -53 -56 -126 -134 -162 -173 -100 -108 -131
-104 -270 29 -84 81 -90 90 -90 127 0 51 39 101 79 101 37 0 80 -21 87 -42 3
-10 10 -18 16 -18 6 0 20 -7 30 -17 12 -11 18 -12 18 -4 0 15 238 256 260 264
27 10 61 7 89 -8z"/>
<path d="M3314 3435 c-52 -31 -78 -82 -71 -137 7 -53 49 -105 95 -118 26 -8
247 -10 722 -8 753 3 721 1 761 65 29 47 23 132 -12 169 -52 55 -35 54 -773
54 l-681 0 -41 -25z"/>
<path d="M3323 2971 c-25 -12 -51 -34 -63 -53 -26 -43 -26 -113 0 -155 40 -66
7 -63 775 -63 630 0 700 2 732 17 100 47 96 187 -7 247 -34 21 -49 21 -715 23
-654 3 -682 2 -722 -16z"/>
</g>
</svg>
